<svg width="24" height="24" viewBox="0 0 24 24" fill="none" xmlns="http://www.w3.org/2000/svg">
<path d="M17.8334 2.50008H22.3335C22.6429 2.50008 22.9397 2.623 23.1584 2.84179C23.3772 3.06058 23.5002 3.35733 23.5002 3.66675V22.3334C23.5002 22.6428 23.3772 22.9396 23.1584 23.1584C22.9397 23.3772 22.6429 23.5001 22.3335 23.5001H1.66667C1.35725 23.5001 1.0605 23.3772 0.841709 23.1584C0.622916 22.9396 0.5 22.6428 0.5 22.3334V3.66675C0.5 3.35733 0.622916 3.06058 0.841709 2.84179C1.0605 2.623 1.35725 2.50008 1.66667 2.50008H6.16674V1.16675C6.16674 0.614463 6.61446 0.166748 7.16674 0.166748H7.50008C8.05236 0.166748 8.50007 0.614463 8.50007 1.16675V2.50008H15.5001V1.16675C15.5001 0.614463 15.9478 0.166748 16.5001 0.166748H16.8334C17.3857 0.166748 17.8334 0.614463 17.8334 1.16675V2.50008ZM2.50016 9.00008V21.5001H21.5002V9.00008H2.50016ZM5.00005 15.1667C5.00006 14.6144 5.44778 14.1667 6.00005 14.1667H9.83341C10.3857 14.1667 10.8334 14.6145 10.8334 15.1667V16.5001C10.8334 17.0524 10.3857 17.5001 9.83341 17.5001H6.00002C5.44773 17.5001 5.00001 17.0524 5.00002 16.5001L5.00005 15.1667Z" fill="black"/>
</svg>
