<svg width="18" height="18" viewBox="0 0 18 18" fill="none" xmlns="http://www.w3.org/2000/svg">
<path d="M17 6V14C17 15.6569 15.6569 17 14 17H4C2.34315 17 1 15.6569 1 14V4C1 2.34315 2.34315 1 4 1H14" stroke="black" stroke-linecap="round"/>
<path d="M8 11.5L5.50325 8.58712C5.23178 8.27042 4.74816 8.25184 4.4532 8.5468C4.19519 8.80481 4.17245 9.21556 4.40038 9.50048L7.23158 13.0395C7.62789 13.5349 8.37937 13.5408 8.78341 13.0517L17.0892 2.99728C17.3221 2.71533 17.3025 2.30251 17.0439 2.04391C16.7509 1.7509 16.2702 1.77036 16.0018 2.08609L8 11.5Z" fill="black"/>
</svg>
