<svg width="20" height="22" viewBox="0 0 20 22" fill="none" xmlns="http://www.w3.org/2000/svg">
<path d="M4.58333 19.8H15.4167V19.525C14.6583 18.8833 13.8188 18.4023 12.8979 18.0818C11.9771 17.7606 11.0111 17.6 10 17.6C8.98889 17.6 8.02292 17.7606 7.10208 18.0818C6.18125 18.4023 5.34167 18.8833 4.58333 19.525V19.8ZM2.41667 18.535C3.39167 17.5633 4.52483 16.7977 5.81617 16.2382C7.10678 15.6794 8.50139 15.4 10 15.4C11.4986 15.4 12.8936 15.6794 14.1849 16.2382C15.4755 16.7977 16.6083 17.5633 17.5833 18.535V4.4H2.41667V18.535ZM10 13.2C8.95278 13.2 8.05903 12.8242 7.31875 12.0725C6.57847 11.3208 6.20833 10.4133 6.20833 9.35C6.20833 8.28667 6.57847 7.37917 7.31875 6.6275C8.05903 5.87583 8.95278 5.5 10 5.5C11.0472 5.5 11.941 5.87583 12.6813 6.6275C13.4215 7.37917 13.7917 8.28667 13.7917 9.35C13.7917 10.4133 13.4215 11.3208 12.6813 12.0725C11.941 12.8242 11.0472 13.2 10 13.2ZM10 11C10.4514 11 10.8349 10.8394 11.1505 10.5182C11.4668 10.1977 11.625 9.80833 11.625 9.35C11.625 8.89167 11.4668 8.50227 11.1505 8.1818C10.8349 7.8606 10.4514 7.7 10 7.7C9.54861 7.7 9.16511 7.8606 8.8495 8.1818C8.53317 8.50227 8.375 8.89167 8.375 9.35C8.375 9.80833 8.53317 10.1977 8.8495 10.5182C9.16511 10.8394 9.54861 11 10 11ZM1.25 22C0.697715 22 0.25 21.5523 0.25 21V3.2C0.25 2.64772 0.697715 2.2 1.25 2.2H3.5V1C3.5 0.447715 3.94772 0 4.5 0H4.66667C5.21895 0 5.66667 0.447715 5.66667 1V2.2H14.3333V1C14.3333 0.447715 14.781 0 15.3333 0H15.5C16.0523 0 16.5 0.447715 16.5 1V2.2H18.75C19.3023 2.2 19.75 2.64772 19.75 3.2V21C19.75 21.5523 19.3023 22 18.75 22H1.25Z" fill="black"/>
</svg>
