<svg width="20" height="15" viewBox="0 0 20 15" fill="none" xmlns="http://www.w3.org/2000/svg">
<path d="M10 9.00614C9.7654 9.00654 9.53687 8.9317 9.34802 8.79262L0.444913 2.22288C0.329075 2.13733 0.231235 2.02981 0.15698 1.90647C0.0827245 1.78313 0.033508 1.64638 0.0121402 1.50404C-0.031014 1.21655 0.0418855 0.923717 0.214802 0.689945C0.387718 0.456173 0.646486 0.300615 0.934181 0.257493C1.22188 0.21437 1.51493 0.287216 1.74888 0.460004L10 6.54248L18.2511 0.460004C18.367 0.374448 18.4985 0.312529 18.6383 0.277782C18.7781 0.243035 18.9234 0.236141 19.0658 0.257493C19.2083 0.278844 19.3451 0.328025 19.4685 0.402225C19.592 0.476425 19.6996 0.574193 19.7852 0.689945C19.8708 0.805697 19.9328 0.937168 19.9676 1.07685C20.0023 1.21653 20.0092 1.36169 19.9879 1.50404C19.9665 1.64638 19.9173 1.78313 19.843 1.90647C19.7688 2.02981 19.6709 2.13733 19.5551 2.22288L10.652 8.79262C10.4631 8.9317 10.2346 9.00654 10 9.00614Z" fill="#FFFFFF"/>
<path d="M10 14.7547C9.7654 14.7551 9.53687 14.6802 9.34802 14.5412L0.444913 7.97142C0.210967 7.79863 0.0552944 7.54005 0.0121402 7.25257C-0.031014 6.96509 0.0418855 6.67225 0.214802 6.43848C0.387718 6.20471 0.646486 6.04915 0.934181 6.00603C1.22188 5.96291 1.51493 6.03575 1.74888 6.20854L10 12.291L18.2511 6.20854C18.4851 6.03575 18.7781 5.96291 19.0658 6.00603C19.3535 6.04915 19.6123 6.20471 19.7852 6.43848C19.9581 6.67225 20.031 6.96509 19.9879 7.25257C19.9447 7.54005 19.789 7.79863 19.5551 7.97142L10.652 14.5412C10.4631 14.6802 10.2346 14.7551 10 14.7547Z" fill="#FFFFFF"/>
</svg>
