<svg width="20" height="9" viewBox="0 0 20 9" fill="none" xmlns="http://www.w3.org/2000/svg">
<path d="M18.9041 8.22528H1.09589C0.805242 8.22528 0.526498 8.10898 0.320979 7.90197C0.11546 7.69495 0 7.41419 0 7.12143C0 6.82867 0.11546 6.5479 0.320979 6.34089C0.526498 6.13388 0.805242 6.01758 1.09589 6.01758H18.9041C19.1948 6.01758 19.4735 6.13388 19.679 6.34089C19.8845 6.5479 20 6.82867 20 7.12143C20 7.41419 19.8845 7.69495 19.679 7.90197C19.4735 8.10898 19.1948 8.22528 18.9041 8.22528Z" fill="#FFA800"/>
<path d="M18.9041 2.98211H1.09589C0.805242 2.98211 0.526498 2.86581 0.320979 2.6588C0.11546 2.45179 0 2.17102 0 1.87826C0 1.5855 0.11546 1.30474 0.320979 1.09772C0.526498 0.890712 0.805242 0.774414 1.09589 0.774414L18.9041 0.774414C19.1948 0.774414 19.4735 0.890712 19.679 1.09772C19.8845 1.30474 20 1.5855 20 1.87826C20 2.17102 19.8845 2.45179 19.679 2.6588C19.4735 2.86581 19.1948 2.98211 18.9041 2.98211Z" fill="#FFA800"/>
</svg>
