<?xml version="1.0" standalone="no"?>
<!DOCTYPE svg PUBLIC "-//W3C//DTD SVG 20010904//EN"
 "http://www.w3.org/TR/2001/REC-SVG-20010904/DTD/svg10.dtd">
<svg version="1.0" xmlns="http://www.w3.org/2000/svg"
 width="50.000000pt" height="50.000000pt" viewBox="0 0 50.000000 50.000000"
 preserveAspectRatio="xMidYMid meet">

<g transform="translate(0.000000,50.000000) scale(0.100000,-0.100000)"
fill="#000000" stroke="none">
<path d="M160 450 c-21 -17 -47 -30 -64 -30 -33 0 -34 16 12 -207 16 -78 34
-149 41 -157 19 -23 183 -23 202 0 7 8 25 79 41 157 45 219 44 207 18 207 -13
0 -38 11 -56 25 -31 23 -34 24 -67 10 -32 -13 -37 -13 -60 5 -14 11 -27 20
-29 20 -1 0 -19 -14 -38 -30z m70 -15 c11 -13 6 -15 -31 -15 -41 1 -43 2 -25
15 25 19 40 19 56 0z m114 0 c18 -14 16 -15 -27 -15 -52 0 -59 6 -24 20 29 12
29 12 51 -5z m66 -45 c0 -6 -60 -10 -160 -10 -100 0 -160 4 -160 10 0 6 60 10
160 10 100 0 160 -4 160 -10z m-190 -46 c11 -12 10 -18 -6 -35 -20 -20 -20
-20 -39 0 -14 17 -15 23 -5 36 16 19 34 19 50 -1z m110 0 c11 -12 10 -18 -6
-35 -20 -20 -20 -20 -39 0 -14 17 -15 23 -5 36 16 19 34 19 50 -1z m-166 -52
c15 -18 15 -20 -3 -36 -23 -21 -41 -13 -41 18 0 39 17 46 44 18z m110 0 c15
-18 15 -20 -4 -37 -19 -17 -21 -17 -40 0 -19 17 -19 19 -4 37 10 10 20 18 24
18 4 0 14 -8 24 -18z m104 -11 c5 -35 -14 -48 -38 -26 -19 17 -19 19 -3 37 21
23 37 19 41 -11z m-163 -81 c-19 -21 -19 -21 -39 -1 -19 20 -19 21 -1 41 l19
21 20 -20 c19 -20 19 -21 1 -41z m110 0 c-19 -21 -19 -21 -39 -1 -19 20 -19
21 -1 41 l19 21 20 -20 c19 -20 19 -21 1 -41z m-162 -18 c13 -14 14 -21 5 -30
-19 -19 -25 -14 -30 18 -5 34 2 38 25 12z m111 0 c15 -18 15 -20 -4 -37 -19
-17 -21 -17 -40 0 -19 17 -19 19 -4 37 10 10 20 18 24 18 4 0 14 -8 24 -18z
m88 -12 c-5 -32 -11 -37 -30 -18 -9 9 -8 16 5 30 23 26 30 22 25 -12z m-145
-77 c-15 -16 -18 -16 -37 2 -19 17 -19 19 -3 37 16 18 17 18 37 -2 19 -19 19
-21 3 -37z m103 3 c-19 -19 -21 -19 -37 -3 -16 15 -16 18 2 37 17 19 19 19 37
3 18 -16 18 -17 -2 -37z m-149 -23 c13 -16 12 -17 -3 -4 -10 7 -18 15 -18 17
0 8 8 3 21 -13z m99 2 c11 -13 8 -15 -20 -15 -28 0 -31 2 -20 15 7 8 16 15 20
15 4 0 13 -7 20 -15z m80 11 c0 -2 -8 -10 -17 -17 -16 -13 -17 -12 -4 4 13 16
21 21 21 13z"/>
</g>
</svg>
