<svg width="20" height="15" viewBox="0 0 20 15" fill="none" xmlns="http://www.w3.org/2000/svg">
<path d="M18.9043 14.7547C18.6696 14.7551 18.4411 14.6803 18.2522 14.5412L10.0001 8.458L1.74809 14.5412C1.63224 14.6267 1.50066 14.6887 1.36086 14.7234C1.22106 14.7582 1.07577 14.7651 0.933305 14.7437C0.790837 14.7223 0.653973 14.6732 0.530528 14.599C0.407083 14.5247 0.299474 14.427 0.213845 14.3112C0.128216 14.1954 0.0662437 14.0639 0.0314671 13.9243C-0.00330956 13.7846 -0.0102098 13.6394 0.0111604 13.497C0.0543195 13.2095 0.21001 12.9509 0.443982 12.7781L9.34809 6.20761C9.53679 6.06802 9.76536 5.99268 10.0001 5.99268C10.2349 5.99268 10.4635 6.06802 10.6522 6.20761L19.5563 12.7781C19.7422 12.915 19.8801 13.1071 19.9503 13.327C20.0204 13.5469 20.0193 13.7833 19.9469 14.0025C19.8746 14.2216 19.7349 14.4124 19.5476 14.5475C19.3604 14.6826 19.1352 14.7551 18.9043 14.7547Z" fill="#FF3D00"/>
<path d="M18.9043 9.00568C18.6696 9.00609 18.4411 8.93124 18.2522 8.79214L10.0002 2.70898L1.7481 8.79214C1.51412 8.96495 1.22104 9.0378 0.93331 8.99468C0.645583 8.95155 0.386785 8.79597 0.213849 8.56218C0.0409137 8.32838 -0.0319941 8.03551 0.011165 7.74799C0.054324 7.46048 0.210015 7.20187 0.443986 7.02906L9.3481 0.458588C9.5368 0.318997 9.76537 0.243652 10.0002 0.243652C10.2349 0.243652 10.4635 0.318997 10.6522 0.458588L19.5563 7.02906C19.7422 7.16598 19.8801 7.35809 19.9503 7.57797C20.0204 7.79785 20.0193 8.03426 19.947 8.25344C19.8746 8.47262 19.7349 8.66338 19.5476 8.79847C19.3604 8.93356 19.1352 9.00608 18.9043 9.00568Z" fill="#FF3D00"/>
</svg>
